<svg width="118" height="12" viewBox="0 0 118 12" fill="none" xmlns="http://www.w3.org/2000/svg">
<path d="M7.02047 8.64857V2.41551H0.249756V0.0480926H13.2519C12.984 0.383773 12.7585 0.751249 12.5717 1.147C12.3849 1.54275 12.2545 1.96676 12.1769 2.41551H9.2339V8.64857H26.4021C26.6559 8.64857 26.8744 8.55317 27.0577 8.36236C27.241 8.17155 27.3326 7.93834 27.3326 7.66273C27.3326 7.52139 27.3079 7.39065 27.2586 7.27052C27.2093 7.15038 27.1423 7.04791 27.0577 6.95957C26.9731 6.87123 26.8744 6.80056 26.7616 6.74756C26.6488 6.69456 26.529 6.66982 26.4021 6.66982H16.8999C16.4628 6.66982 16.0575 6.58149 15.6768 6.40835C15.2962 6.23521 14.9649 5.99846 14.6864 5.69812C14.4045 5.4013 14.1824 5.05149 14.0168 4.64867C13.8511 4.24586 13.77 3.81478 13.77 3.35189C13.77 2.88901 13.8511 2.46852 14.0168 2.0657C14.1824 1.66289 14.4045 1.31307 14.6864 1.01626C14.9684 0.719449 15.2997 0.482703 15.6768 0.306029C16.0575 0.129356 16.4628 0.0445557 16.8999 0.0445557H27.7838V2.41199H16.8999C16.6461 2.41199 16.4346 2.50739 16.2619 2.69466C16.0892 2.88194 16.0046 3.10102 16.0046 3.35189C16.0046 3.6169 16.0927 3.84304 16.269 4.02678C16.4452 4.21052 16.6567 4.30239 16.9034 4.30239H26.4056C26.8427 4.30239 27.2515 4.39073 27.6357 4.56387C28.0199 4.74055 28.3547 4.97729 28.6438 5.28117C28.9328 5.58505 29.1583 5.93839 29.324 6.34827C29.4896 6.75816 29.5707 7.1963 29.5707 7.65919C29.5707 8.12208 29.4896 8.55669 29.324 8.96304C29.1583 9.36939 28.9328 9.72628 28.6438 10.0302C28.3547 10.3376 28.0199 10.5778 27.6357 10.751C27.2515 10.9277 26.8427 11.0125 26.4056 11.0125H0.253279V8.64503H7.02399L7.02047 8.64857Z" fill="url(#paint0_linear_243_774)"/>
<path d="M30.3462 2.41564V0.0482178H48.7903V2.41564H40.7014V11.0197H38.4668V2.41564H30.3462Z" fill="url(#paint1_linear_243_774)"/>
<path d="M50.6489 0.00231934C51.1776 0.465205 51.657 0.882158 52.087 1.25317C52.5205 1.62419 53.0104 2.0482 53.5637 2.52169C54.1136 2.99517 54.6775 3.47926 55.2556 3.98102C55.8336 4.48277 56.394 4.96685 56.9473 5.44033C57.4972 5.91382 57.9906 6.33784 58.4241 6.70886C58.8577 7.07987 59.337 7.49682 59.8622 7.9597L69.1036 0.00585626V10.9879H66.8902V4.97745L59.8516 11.0232C59.8093 10.9844 59.6754 10.8713 59.4498 10.6769C59.2242 10.4826 58.9458 10.2423 58.6109 9.94905C58.2761 9.6593 57.9025 9.33422 57.4866 8.97734C57.0707 8.62046 56.6513 8.25652 56.2248 7.88904C55.7983 7.52156 55.3824 7.16467 54.9806 6.81486C54.5753 6.46858 54.2158 6.16117 53.9056 5.88909C53.5919 5.61701 53.2465 5.31313 52.8659 4.97745V10.9879H50.6525V0.00585626L50.6489 0.00231934Z" fill="url(#paint2_linear_243_774)"/>
<path d="M74.3711 6.66992C73.9411 6.66992 73.5393 6.58159 73.1586 6.40845C72.778 6.23531 72.4502 5.99856 72.1682 5.69822C71.8862 5.40141 71.6642 5.05159 71.4985 4.64878C71.3329 4.24596 71.2518 3.81488 71.2518 3.352C71.2518 2.88911 71.3329 2.46862 71.4985 2.06227C71.6642 1.65592 71.8862 1.30258 72.1682 1.00576C72.4502 0.708951 72.7815 0.472205 73.1586 0.295531C73.5393 0.118858 73.9411 0.0340576 74.3711 0.0340576H87.0031V2.41562H74.3711C74.1243 2.41562 73.9164 2.50749 73.7437 2.69123C73.571 2.87497 73.4864 3.09759 73.4864 3.352C73.4864 3.48627 73.5075 3.6064 73.5534 3.72301C73.5992 3.83608 73.6626 3.93501 73.7437 4.01982C73.8248 4.10462 73.9199 4.17176 74.0292 4.22476C74.1384 4.27777 74.2512 4.30249 74.3711 4.30249H87.0031V11.0161H84.7686V6.66992H78.019L74.2759 11.0161H71.2483L74.9914 6.66992H74.3711ZM88.7161 11.0161V0.0446576L98.1655 11.0161H95.1484L90.9295 6.1293V11.0161H88.7161Z" fill="url(#paint3_linear_243_774)"/>
<path d="M114.628 0.0445557C115.058 0.0445557 115.459 0.132889 115.84 0.306029C116.221 0.482703 116.548 0.719449 116.83 1.01626C117.112 1.31307 117.334 1.66289 117.5 2.0657C117.666 2.46852 117.747 2.89608 117.747 3.35189C117.747 3.80771 117.666 4.24586 117.5 4.64867C117.334 5.05149 117.112 5.4013 116.83 5.69812C116.548 5.99493 116.217 6.23167 115.84 6.40835C115.459 6.58502 115.058 6.66982 114.628 6.66982H114.007L117.75 11.016H114.723L110.976 6.66982H102.429V11.016H100.216V4.30239H114.631C114.878 4.30239 115.086 4.21052 115.258 4.02678C115.431 3.84304 115.516 3.6169 115.516 3.35189C115.516 3.22822 115.495 3.10808 115.449 2.99501C115.403 2.88194 115.34 2.77947 115.258 2.6982C115.177 2.6134 115.086 2.54625 114.98 2.49325C114.874 2.44025 114.758 2.41551 114.631 2.41551H100.216V0.0480926H114.631L114.628 0.0445557Z" fill="url(#paint4_linear_243_774)"/>
<defs>
<linearGradient id="paint0_linear_243_774" x1="0.249756" y1="5.50731" x2="117.749" y2="5.50731" gradientUnits="userSpaceOnUse">
<stop stop-color="#091012"/>
<stop offset="0.12" stop-color="#0C1317"/>
<stop offset="0.27" stop-color="#161E25"/>
<stop offset="0.43" stop-color="#27303E"/>
<stop offset="0.6" stop-color="#3F4960"/>
<stop offset="0.78" stop-color="#5E6A8C"/>
<stop offset="0.96" stop-color="#8291C2"/>
<stop offset="1" stop-color="#8B9ACE"/>
</linearGradient>
<linearGradient id="paint1_linear_243_774" x1="0.249819" y1="5.50744" x2="117.749" y2="5.50744" gradientUnits="userSpaceOnUse">
<stop stop-color="#091012"/>
<stop offset="0.12" stop-color="#0C1317"/>
<stop offset="0.27" stop-color="#161E25"/>
<stop offset="0.43" stop-color="#27303E"/>
<stop offset="0.6" stop-color="#3F4960"/>
<stop offset="0.78" stop-color="#5E6A8C"/>
<stop offset="0.96" stop-color="#8291C2"/>
<stop offset="1" stop-color="#8B9ACE"/>
</linearGradient>
<linearGradient id="paint2_linear_243_774" x1="0.250977" y1="5.50748" x2="117.75" y2="5.50748" gradientUnits="userSpaceOnUse">
<stop stop-color="#091012"/>
<stop offset="0.12" stop-color="#0C1317"/>
<stop offset="0.27" stop-color="#161E25"/>
<stop offset="0.43" stop-color="#27303E"/>
<stop offset="0.6" stop-color="#3F4960"/>
<stop offset="0.78" stop-color="#5E6A8C"/>
<stop offset="0.96" stop-color="#8291C2"/>
<stop offset="1" stop-color="#8B9ACE"/>
</linearGradient>
<linearGradient id="paint3_linear_243_774" x1="0.249244" y1="5.50741" x2="117.748" y2="5.50741" gradientUnits="userSpaceOnUse">
<stop stop-color="#091012"/>
<stop offset="0.12" stop-color="#0C1317"/>
<stop offset="0.27" stop-color="#161E25"/>
<stop offset="0.43" stop-color="#27303E"/>
<stop offset="0.6" stop-color="#3F4960"/>
<stop offset="0.78" stop-color="#5E6A8C"/>
<stop offset="0.96" stop-color="#8291C2"/>
<stop offset="1" stop-color="#8B9ACE"/>
</linearGradient>
<linearGradient id="paint4_linear_243_774" x1="0.251507" y1="5.50731" x2="117.75" y2="5.50731" gradientUnits="userSpaceOnUse">
<stop stop-color="#091012"/>
<stop offset="0.12" stop-color="#0C1317"/>
<stop offset="0.27" stop-color="#161E25"/>
<stop offset="0.43" stop-color="#27303E"/>
<stop offset="0.6" stop-color="#3F4960"/>
<stop offset="0.78" stop-color="#5E6A8C"/>
<stop offset="0.96" stop-color="#8291C2"/>
<stop offset="1" stop-color="#8B9ACE"/>
</linearGradient>
</defs>
</svg>
